<?xml version="1.0" standalone="no"?>
<!DOCTYPE svg PUBLIC "-//W3C//DTD SVG 20010904//EN"
 "http://www.w3.org/TR/2001/REC-SVG-20010904/DTD/svg10.dtd">
<svg version="1.0" xmlns="http://www.w3.org/2000/svg"
 width="2126.000000pt" height="776.000000pt" viewBox="0 0 2126.000000 776.000000"
 preserveAspectRatio="xMidYMid meet">
<metadata>
Created by potrace 1.15, written by Peter Selinger 2001-2017
</metadata>
<g transform="translate(0.000000,776.000000) scale(0.100000,-0.100000)"
fill="#000000" stroke="none">
<path d="M3115 7129 c-912 -52 -1709 -726 -1914 -1619 -52 -227 -67 -548 -36
-765 98 -692 518 -1282 1133 -1593 249 -126 469 -191 754 -222 324 -34 697 22
1015 156 141 59 252 120 399 220 148 100 199 127 306 158 106 30 223 40 318
26 l75 -11 28 33 c76 89 277 413 277 446 0 6 -18 42 -41 79 -76 124 -129 293
-129 413 0 28 11 115 24 193 27 158 42 337 29 337 -4 0 -51 -15 -103 -34 -52
-18 -127 -41 -167 -51 l-72 -19 -6 -45 c-92 -717 -578 -1294 -1260 -1494 -143
-42 -258 -59 -437 -64 -307 -10 -540 37 -808 164 -639 301 -1038 961 -1006
1668 11 257 66 468 186 710 321 647 998 1027 1723 967 298 -24 575 -121 822
-286 54 -36 102 -66 107 -66 5 0 80 39 165 87 l156 87 -34 29 c-422 356 -943
528 -1504 496z"/>
<path d="M10375 6509 c-270 -36 -492 -145 -666 -326 -137 -142 -209 -263 -266
-448 l-28 -90 0 -660 c0 -654 0 -661 23 -745 61 -229 222 -458 424 -600 202
-143 408 -203 693 -204 335 -2 604 96 824 299 142 133 265 354 247 449 -9 45
-48 79 -231 197 -150 98 -162 104 -211 104 -66 0 -76 -10 -168 -150 -119 -181
-227 -263 -380 -287 -152 -23 -291 18 -395 117 -103 98 -150 222 -151 393 0
75 2 85 25 107 l24 25 351 0 c391 0 399 1 426 65 20 49 20 391 0 440 -25 59
-26 60 -424 65 l-364 5 -19 24 c-15 18 -19 39 -19 99 0 169 40 282 136 382 89
94 201 140 334 140 187 -1 322 -90 463 -306 75 -114 90 -129 134 -139 52 -11
96 10 280 133 157 105 174 119 185 153 26 88 -62 274 -196 417 -160 168 -357
277 -586 323 -112 23 -361 32 -465 18z"/>
<path d="M13189 6505 c-104 -16 -181 -42 -306 -100 -105 -49 -122 -49 -161 4
-33 45 -81 54 -257 49 -161 -5 -192 -13 -222 -57 -17 -24 -18 -107 -21 -1406
-3 -1518 -6 -1441 57 -1478 24 -14 57 -17 201 -17 184 0 199 3 241 53 l27 31
109 -47 c207 -88 418 -120 665 -99 224 20 363 55 513 130 249 124 395 299 463
551 22 83 25 117 25 246 0 126 -3 161 -21 219 -30 97 -93 201 -179 298 -40 46
-73 91 -73 103 0 12 27 47 66 85 171 168 224 307 211 555 -18 350 -182 602
-492 757 -228 115 -575 165 -846 123z m401 -625 c78 -26 159 -77 194 -123 84
-110 72 -300 -24 -380 -87 -73 -197 -102 -425 -112 -185 -8 -189 -8 -203 -40
-17 -38 -17 -495 1 -517 10 -13 43 -17 177 -21 299 -9 443 -64 505 -191 25
-51 27 -64 23 -140 -5 -96 -31 -151 -99 -210 -91 -77 -288 -122 -438 -99 -190
30 -347 179 -381 362 -6 31 -10 270 -10 575 0 437 3 531 15 581 43 162 170
290 330 332 75 19 253 10 335 -17z"/>
<path d="M16015 6504 c-55 -9 -147 -31 -204 -50 -181 -60 -313 -144 -445 -285
-130 -138 -207 -274 -259 -457 -21 -76 -22 -89 -22 -737 l0 -660 28 -90 c61
-196 144 -331 295 -477 191 -185 391 -276 682 -309 509 -58 998 192 1177 601
36 84 41 138 16 180 -10 17 -88 76 -189 144 -258 171 -274 170 -406 -26 -44
-67 -104 -144 -132 -171 -180 -173 -493 -167 -660 13 -95 103 -136 219 -136
388 0 64 3 76 25 97 l24 25 351 0 c385 0 395 1 425 60 22 42 22 408 0 450 -28
54 -32 55 -422 60 -422 6 -395 -1 -401 108 -16 280 145 499 392 535 103 15
202 0 290 -43 83 -41 173 -134 262 -272 72 -111 106 -135 173 -123 53 10 388
230 408 268 22 43 12 110 -31 202 -129 278 -410 488 -746 556 -133 27 -365 33
-495 13z"/>
<path d="M7268 6451 c-54 -11 -86 -36 -98 -78 -8 -27 -10 -429 -8 -1368 l3
-1330 27 -52 c30 -56 65 -86 129 -108 62 -22 1606 -22 1648 0 50 26 61 73 61
271 0 186 -7 221 -50 259 -21 19 -40 20 -560 25 -435 4 -540 8 -553 19 -16 12
-17 104 -17 1132 0 1236 3 1175 -63 1215 -29 17 -54 19 -257 21 -124 1 -241
-2 -262 -6z"/>
<path d="M17923 6451 c-23 -4 -49 -13 -58 -21 -47 -39 -45 20 -45 -1455 0
-1523 -4 -1427 60 -1460 43 -22 487 -22 530 0 62 32 60 3 60 807 0 403 4 739
9 746 14 23 43 9 74 -33 16 -22 216 -353 444 -735 228 -382 429 -710 446 -728
68 -71 78 -73 362 -70 l255 3 27 28 28 27 2 1403 c2 1100 0 1407 -10 1426 -6
13 -25 34 -40 45 -27 20 -40 21 -265 21 -210 0 -241 -2 -270 -18 -64 -35 -62
-13 -62 -806 0 -396 -3 -726 -6 -735 -3 -9 -14 -16 -24 -16 -30 0 30 -95 -587
930 -184 305 -347 568 -361 583 -55 59 -68 61 -307 63 -121 2 -239 -1 -262 -5z"/>
<path d="M3327 5853 c-68 -95 -135 -199 -161 -250 -126 -251 -140 -607 -36
-934 47 -150 130 -301 336 -609 194 -290 274 -421 315 -520 12 -30 24 -57 26
-59 3 -5 117 42 195 81 l57 28 -18 52 c-51 148 -126 272 -315 518 -157 204
-220 293 -276 385 -155 259 -203 421 -203 690 0 179 17 284 78 475 46 146 55
179 45 185 -5 3 -24 -16 -43 -42z"/>
<path d="M5718 3703 c-34 -41 -238 -371 -238 -386 0 -11 240 -177 722 -498
397 -265 731 -484 741 -487 39 -10 171 146 240 283 74 148 83 190 45 214 -27
17 -560 340 -803 486 -93 57 -282 171 -419 254 -138 83 -255 151 -261 151 -7
0 -19 -8 -27 -17z"/>
<path d="M3973 2922 l-132 -47 -16 -50 c-46 -140 -146 -319 -270 -480 -41 -54
-75 -106 -75 -116 0 -41 136 -37 201 6 21 14 95 80 163 148 179 177 234 284
280 550 5 27 3 37 -6 36 -7 0 -72 -22 -145 -47z"/>
<path d="M2620 1242 c-76 -22 -170 -114 -191 -187 -21 -75 -21 -602 1 -615 17
-11 129 -13 154 -4 14 5 16 28 16 153 0 80 4 152 8 159 7 9 39 12 128 10 l119
-3 3 -149 c1 -90 7 -155 14 -163 15 -19 152 -18 167 1 9 11 12 92 9 308 l-3
293 -30 54 c-74 134 -232 191 -395 143z m184 -173 c35 -28 56 -70 56 -114 l0
-35 -124 0 c-69 0 -127 4 -131 9 -14 23 9 97 41 129 27 27 39 32 82 32 35 0
57 -6 76 -21z"/>
<path d="M3395 1240 c-39 -16 -55 -18 -70 -10 -12 6 -45 10 -75 8 l-55 -3 -3
-288 c-1 -178 2 -304 8 -327 13 -50 64 -116 115 -152 22 -15 71 -35 108 -45
128 -31 286 14 348 100 62 85 61 201 -2 280 l-30 37 35 41 c39 46 52 96 41
162 -22 132 -120 204 -290 213 -65 4 -90 0 -130 -16z m185 -165 c91 -47 50
-155 -58 -155 -63 0 -74 -9 -79 -67 -7 -71 5 -89 66 -96 93 -11 133 -49 117
-112 -8 -32 -42 -53 -98 -61 -64 -9 -111 15 -138 72 -20 40 -22 57 -18 198 3
138 5 158 24 183 11 15 32 34 45 40 33 17 104 16 139 -2z"/>
<path d="M4185 1251 c-89 -25 -164 -87 -201 -166 -22 -47 -24 -61 -24 -251 0
-195 1 -201 26 -252 54 -108 158 -167 294 -166 90 0 164 30 224 90 74 75 81
102 81 329 0 182 -2 204 -21 246 -51 111 -144 171 -273 175 -42 2 -89 -1 -106
-5z m173 -195 l37 -34 3 -174 c3 -167 2 -174 -20 -208 -43 -64 -136 -77 -191
-26 -39 36 -50 93 -45 253 3 125 6 145 24 170 28 37 60 53 112 53 34 0 49 -6
80 -34z"/>
<path d="M4932 1243 c-70 -21 -151 -94 -183 -165 -23 -52 -24 -59 -24 -341 0
-245 2 -289 15 -297 17 -11 129 -13 154 -4 14 5 16 28 16 149 0 79 3 150 6
159 9 23 137 22 184 -2 54 -27 70 -69 70 -187 0 -65 4 -105 12 -113 16 -16
150 -16 166 0 15 15 16 217 1 273 -6 22 -25 57 -41 79 -21 26 -28 43 -22 51 5
7 23 30 39 51 27 34 30 44 30 108 -1 84 -24 137 -82 185 -77 64 -227 87 -341
54z m195 -173 c39 -23 52 -63 32 -99 -22 -39 -56 -51 -151 -51 -98 0 -104 5
-89 73 10 42 35 75 66 88 37 15 109 10 142 -11z"/>
<path d="M5706 1244 c-62 -20 -118 -57 -151 -100 -52 -67 -55 -93 -55 -409 0
-258 2 -294 16 -299 23 -9 137 -7 151 2 9 6 13 54 15 162 l3 155 125 0 125 0
3 -149 c1 -90 7 -155 14 -163 15 -19 152 -18 167 1 9 11 11 92 9 303 l-3 288
-28 57 c-31 63 -87 115 -152 143 -57 24 -178 29 -239 9z m178 -175 c35 -28 56
-70 56 -114 l0 -35 -125 0 c-140 0 -143 1 -130 67 4 22 20 50 40 70 28 28 40
33 83 33 35 0 57 -6 76 -21z"/>
<path d="M7240 1244 c-83 -30 -149 -91 -188 -174 -13 -29 -16 -70 -17 -230 0
-194 0 -195 28 -252 56 -114 158 -173 297 -172 126 0 228 63 282 173 22 43 23
58 23 246 0 184 -2 204 -21 246 -28 60 -94 126 -152 151 -62 28 -191 34 -252
12z m188 -179 c48 -41 54 -67 50 -243 -3 -184 -11 -205 -86 -232 -58 -20 -117
0 -147 50 -18 31 -20 52 -20 202 0 153 2 169 21 195 44 59 130 72 182 28z"/>
<path d="M8035 1251 c-99 -28 -155 -73 -197 -158 l-33 -68 0 -288 c0 -245 2
-289 15 -297 18 -12 140 -13 157 -2 9 6 13 54 15 162 l3 155 75 3 c142 5 180
-38 180 -203 0 -65 4 -105 12 -113 16 -16 150 -16 166 0 15 15 16 204 1 268
-5 25 -24 62 -41 84 -21 26 -28 43 -22 51 5 7 23 30 39 51 27 34 30 44 29 108
-1 115 -57 194 -163 232 -53 18 -192 27 -236 15z m172 -181 c57 -34 53 -107
-7 -137 -38 -19 -199 -17 -206 2 -12 30 8 89 41 122 29 29 39 33 87 33 35 0
64 -7 85 -20z"/>
<path d="M9575 1251 c-94 -25 -164 -83 -207 -169 -22 -44 -23 -58 -23 -242 0
-193 0 -195 28 -252 56 -114 159 -173 297 -172 101 1 164 29 230 101 73 80 82
121 78 341 -3 156 -6 183 -25 223 -27 60 -93 125 -150 151 -50 22 -178 33
-228 19z m164 -187 c45 -38 53 -79 49 -251 -3 -174 -12 -196 -86 -223 -58 -20
-117 0 -147 50 -18 31 -20 52 -20 202 0 153 2 169 21 195 44 59 130 72 183 27z"/>
<path d="M10817 1246 c-94 -26 -181 -113 -207 -204 -15 -55 -13 -585 2 -600
17 -17 152 -16 166 1 7 8 13 73 14 163 l3 149 119 3 c89 2 121 -1 128 -10 4
-7 8 -79 8 -159 0 -167 -5 -159 90 -159 98 0 90 -27 90 309 0 291 -1 297 -24
346 -30 63 -86 118 -151 146 -62 27 -171 34 -238 15z m183 -183 c32 -29 54
-93 44 -125 -5 -16 -20 -18 -131 -18 l-126 0 5 52 c5 44 11 57 42 85 30 28 43
33 86 33 40 0 56 -5 80 -27z"/>
<path d="M11588 1246 c-97 -26 -174 -102 -203 -199 -21 -72 -21 -354 1 -427
20 -69 95 -149 167 -180 67 -30 180 -32 254 -7 62 22 136 84 166 141 18 35 22
61 25 179 3 98 0 142 -8 152 -18 21 -272 22 -289 1 -7 -9 -11 -40 -9 -78 l3
-63 57 -3 c52 -3 59 -6 64 -27 8 -33 -12 -88 -43 -119 -53 -53 -147 -41 -191
24 -22 34 -23 41 -20 208 l3 174 37 34 c30 27 46 34 77 34 60 0 87 -15 127
-70 20 -27 43 -50 51 -50 9 0 40 16 69 36 64 42 68 61 25 124 -71 105 -222
154 -363 116z"/>
<path d="M12342 1242 c-29 -11 -70 -33 -90 -49 -46 -36 -97 -120 -106 -170
-12 -73 -7 -568 6 -581 17 -17 152 -16 166 1 7 8 13 73 14 163 l3 149 75 3
c65 2 81 0 110 -20 56 -37 70 -77 70 -194 0 -84 3 -103 16 -108 23 -9 137 -7
152 3 11 6 13 41 10 154 l-3 145 -32 47 c-18 25 -33 48 -33 50 0 3 16 25 35
51 32 42 35 51 35 113 0 157 -103 249 -290 258 -66 3 -97 -1 -138 -15z m193
-168 c41 -19 60 -60 46 -97 -16 -42 -58 -57 -161 -57 l-90 0 0 35 c0 106 105
167 205 119z"/>
<path d="M13113 1242 c-67 -24 -118 -64 -154 -120 -43 -68 -49 -101 -49 -283
0 -205 10 -246 80 -322 66 -73 130 -101 230 -101 136 -1 240 58 294 166 25 51
26 57 26 252 0 191 -1 204 -24 251 -30 63 -86 117 -151 146 -69 31 -182 36
-252 11z m203 -186 l34 -34 0 -176 c0 -135 -3 -184 -15 -205 -15 -30 -69 -61
-104 -61 -39 0 -90 28 -111 62 -19 30 -20 46 -18 206 l3 174 37 34 c33 29 45
34 89 34 45 0 55 -4 85 -34z"/>
<path d="M13883 1242 c-93 -33 -168 -111 -193 -202 -15 -53 -13 -583 2 -598
16 -16 150 -16 166 0 8 8 12 52 12 131 l0 119 38 -8 c58 -14 152 -9 209 10 62
21 136 83 165 140 30 59 36 171 13 233 -25 64 -94 136 -158 164 -72 31 -184
36 -254 11z m203 -184 c34 -34 45 -85 28 -134 -24 -70 -91 -99 -162 -72 -89
34 -108 141 -37 206 35 32 41 34 92 30 41 -4 60 -11 79 -30z"/>
<path d="M14675 1243 c-88 -27 -166 -100 -194 -182 -7 -21 -11 -109 -11 -231
0 -191 1 -197 26 -248 32 -65 100 -126 167 -149 71 -24 187 -22 249 5 54 24
123 83 144 123 26 51 19 73 -37 108 -28 17 -58 31 -67 31 -9 0 -33 -21 -52
-47 -79 -106 -208 -92 -240 26 -20 75 -14 80 108 83 l107 3 3 63 c2 38 -2 69
-9 78 -8 10 -37 14 -110 14 -54 0 -100 4 -104 9 -12 20 9 95 35 124 22 25 36
31 81 35 48 4 59 1 86 -22 18 -15 42 -42 53 -61 12 -19 29 -35 38 -35 10 0 41
16 71 36 51 34 53 38 48 71 -22 132 -224 218 -392 166z"/>
<path d="M15455 1247 c-67 -23 -101 -44 -143 -92 -64 -72 -72 -110 -72 -324 0
-175 2 -189 24 -237 80 -172 296 -233 467 -131 55 33 119 112 119 148 0 20
-93 89 -121 89 -9 0 -35 -22 -58 -50 -69 -81 -142 -91 -208 -25 l-33 33 0 171
c0 190 7 219 60 246 67 34 141 12 187 -57 16 -24 36 -44 45 -46 21 -4 128 67
128 85 0 25 -37 87 -72 120 -51 49 -121 76 -208 80 -44 2 -91 -3 -115 -10z"/>
<path d="M16973 1246 c-85 -28 -155 -88 -190 -164 -15 -32 -18 -79 -21 -330
-2 -217 0 -297 9 -308 15 -19 152 -20 167 -1 7 8 13 73 14 163 l3 149 119 3
c89 2 121 -1 128 -10 4 -7 8 -79 8 -159 0 -167 -5 -159 90 -159 98 0 90 -27
90 309 0 291 -1 297 -24 346 -30 63 -86 117 -151 146 -62 28 -181 35 -242 15z
m174 -176 c40 -24 54 -50 56 -103 l2 -42 -129 -3 -129 -3 5 53 c5 44 11 57 42
85 29 27 44 33 78 33 25 0 57 -8 75 -20z"/>
<path d="M17733 1242 c-93 -33 -168 -110 -192 -197 -16 -58 -15 -587 1 -603
17 -17 152 -16 166 1 7 8 13 73 14 163 l3 149 60 3 c78 4 127 -11 159 -49 24
-29 26 -37 26 -135 0 -140 2 -144 93 -144 40 0 78 4 85 9 11 6 13 41 10 154
l-3 145 -32 47 c-18 25 -33 48 -33 50 0 3 16 26 36 52 35 46 36 49 32 123 -4
108 -38 162 -130 209 -57 29 -78 34 -154 38 -69 3 -101 0 -141 -15z m180 -161
c40 -15 57 -40 57 -82 0 -34 -5 -42 -32 -59 -27 -16 -51 -20 -127 -20 l-94 0
5 52 c5 44 11 57 42 85 29 27 44 33 80 33 25 0 56 -4 69 -9z"/>
<path d="M19282 1246 c-82 -27 -141 -76 -180 -151 -27 -49 -27 -52 -27 -255 0
-188 2 -209 21 -250 51 -108 158 -174 284 -174 106 -1 171 24 236 88 78 79 86
113 82 353 -3 181 -5 202 -25 238 -30 56 -89 110 -148 136 -62 28 -181 35
-243 15z m191 -190 c41 -40 47 -69 47 -226 0 -135 -9 -176 -48 -213 -56 -54
-151 -41 -192 25 -18 29 -20 50 -20 191 0 175 8 209 58 239 15 10 48 18 74 18
41 0 52 -5 81 -34z"/>
<path d="M1716 1225 c-3 -9 -6 -181 -6 -381 l0 -365 25 -24 24 -25 249 0 c179
0 251 3 260 12 17 17 16 123 -1 137 -8 6 -80 12 -188 13 l-174 3 -5 320 -5
320 -86 3 c-72 2 -88 0 -93 -13z"/>
<path d="M6277 1233 c-13 -12 -8 -131 6 -140 6 -4 55 -10 107 -13 l95 -5 3
-309 c1 -208 6 -314 13 -323 13 -14 135 -18 156 -5 10 6 13 86 15 323 l3 314
103 5 c76 4 105 9 112 20 14 22 12 114 -2 128 -9 9 -91 12 -308 12 -163 0
-300 -3 -303 -7z"/>
<path d="M8640 1221 c-13 -24 -13 -101 0 -121 6 -10 32 -17 82 -20 l73 -5 0
-240 0 -240 -105 -5 -105 -5 -3 -69 c-2 -49 1 -72 10 -77 22 -14 592 -11 606
3 16 16 16 123 -1 136 -7 6 -58 13 -113 14 l-99 3 0 240 0 240 72 5 c40 3 77
10 83 16 6 6 10 38 8 75 l-3 64 -247 3 c-236 2 -248 1 -258 -17z"/>
<path d="M15996 1224 c-3 -9 -6 -136 -6 -283 0 -319 5 -346 81 -426 66 -70
130 -98 229 -99 131 -1 227 50 288 152 l27 47 0 310 0 310 -85 0 -85 0 -5
-280 c-5 -255 -7 -283 -25 -312 -20 -34 -68 -63 -104 -63 -40 0 -90 28 -111
62 -19 31 -20 50 -20 300 0 146 -3 273 -6 282 -5 13 -23 16 -89 16 -66 0 -84
-3 -89 -16z"/>
<path d="M18367 1234 c-4 -4 -7 -36 -7 -70 0 -76 10 -84 99 -84 l61 0 0 -245
0 -245 -98 0 c-63 0 -102 -4 -110 -12 -7 -7 -12 -37 -12 -68 0 -31 5 -61 12
-68 14 -14 584 -17 606 -3 9 5 12 28 10 77 l-3 69 -105 5 -105 5 -3 243 -2
242 67 0 c38 0 74 4 81 9 9 5 12 28 10 77 l-3 69 -246 3 c-135 1 -248 -1 -252
-4z"/>
</g>
</svg>
