<?xml version="1.0" standalone="no"?>
<!DOCTYPE svg PUBLIC "-//W3C//DTD SVG 20010904//EN"
 "http://www.w3.org/TR/2001/REC-SVG-20010904/DTD/svg10.dtd">
<svg version="1.0" xmlns="http://www.w3.org/2000/svg"
 width="472.000000pt" height="172.000000pt" viewBox="0 0 472.000000 172.000000"
 preserveAspectRatio="xMidYMid meet">
<metadata>
Created by potrace 1.15, written by Peter Selinger 2001-2017
</metadata>
<g transform="translate(0.000000,172.000000) scale(0.100000,-0.100000)"
fill="#000000" stroke="none">
<path d="M1174 1531 c-35 -31 -112 -85 -175 -120 -160 -90 -206 -137 -223
-233 -6 -34 5 -112 18 -125 3 -4 23 1 43 11 21 9 95 23 165 31 234 27 310 98
294 280 -5 63 -39 189 -55 207 -3 3 -34 -19 -67 -51z"/>
<path d="M590 1561 c-186 -60 -304 -197 -331 -386 -43 -300 230 -572 529 -525
68 11 168 52 224 91 18 13 53 24 86 28 54 6 58 8 88 54 l32 49 -20 45 c-16 37
-19 57 -13 114 8 74 6 75 -42 58 -25 -8 -32 -17 -37 -47 -17 -107 -107 -224
-213 -278 -54 -27 -66 -29 -168 -29 -104 0 -114 2 -177 33 -148 73 -231 235
-207 406 17 122 100 233 219 290 60 28 73 31 166 31 97 0 105 -2 172 -36 l71
-37 33 20 32 20 -29 25 c-104 85 -282 117 -415 74z"/>
<path d="M2280 1439 c-57 -11 -116 -52 -155 -108 l-30 -43 -3 -170 c-3 -166
-3 -171 23 -223 43 -89 120 -134 233 -135 104 0 210 63 228 137 9 34 -2 49
-53 80 l-42 24 -18 -22 c-48 -61 -75 -79 -117 -79 -53 0 -82 21 -97 70 -19 63
-12 69 88 72 l88 3 3 48 c5 70 -5 77 -104 77 l-84 0 0 28 c0 39 32 86 69 102
47 19 89 3 126 -47 16 -23 38 -42 48 -42 9 -1 35 11 57 25 52 34 53 65 5 121
-60 71 -163 103 -265 82z"/>
<path d="M2890 1431 c-34 -12 -59 -16 -64 -10 -17 16 -103 11 -110 -7 -3 -9
-6 -152 -6 -318 0 -222 3 -305 12 -314 15 -15 72 -16 98 -2 13 7 29 5 56 -6
54 -23 184 -15 240 14 108 56 146 190 79 278 -26 34 -26 35 -8 61 49 70 56
119 24 188 -48 106 -197 160 -321 116z m155 -145 c18 -12 25 -25 25 -50 0 -45
-19 -58 -93 -65 l-62 -6 -3 -61 -3 -61 59 -7 c72 -8 102 -27 102 -66 0 -44
-34 -70 -93 -70 -40 0 -53 5 -78 29 l-29 29 0 137 c0 146 9 181 54 204 27 14
90 7 121 -13z"/>
<path d="M3537 1440 c-78 -20 -143 -75 -173 -146 -18 -44 -20 -340 -2 -381 54
-126 201 -185 341 -137 78 26 151 113 134 158 -3 8 -27 27 -53 42 l-48 28 -20
-29 c-45 -62 -63 -75 -108 -75 -55 0 -84 20 -99 70 -19 63 -12 69 88 72 l88 3
3 48 c5 70 -5 77 -106 77 l-85 0 6 41 c15 110 137 130 200 34 27 -42 45 -43
97 -9 43 29 49 48 26 92 -45 86 -181 138 -289 112z"/>
<path d="M1597 1423 c-4 -3 -7 -145 -7 -314 0 -307 0 -308 22 -323 18 -13 55
-16 198 -16 124 0 180 4 188 12 7 7 12 29 12 49 0 70 1 69 -136 69 l-124 0 0
253 c0 183 -3 256 -12 265 -13 13 -130 17 -141 5z"/>
<path d="M3966 1422 c-9 -16 -8 -634 2 -644 5 -5 36 -8 68 -6 l59 3 3 173 c1
94 6 172 10 172 4 0 52 -75 107 -166 55 -91 107 -170 117 -175 21 -11 108 -12
126 -1 9 7 12 79 10 328 l-3 319 -70 0 -70 0 -5 -174 -5 -174 -105 174 -105
174 -67 3 c-36 2 -69 -1 -72 -6z"/>
<path d="M715 1262 c-33 -49 -43 -137 -25 -210 7 -31 37 -89 76 -147 35 -54
66 -106 69 -117 5 -14 12 -17 28 -12 52 15 45 41 -43 159 -92 123 -113 197
-86 300 8 32 13 61 11 63 -2 2 -15 -14 -30 -36z"/>
<path d="M410 1102 c0 -69 22 -135 53 -160 26 -22 82 -25 133 -8 26 9 58 16
71 16 39 0 29 64 -20 117 -13 15 -45 28 -94 39 -40 9 -89 27 -108 40 l-35 23
0 -67z"/>
<path d="M1245 783 c-14 -21 -25 -42 -25 -48 0 -5 73 -58 163 -118 l162 -107
27 30 c25 27 46 76 37 84 -12 12 -323 196 -330 196 -5 0 -20 -17 -34 -37z"/>
<path d="M52 461 c-8 -4 -12 -19 -10 -32 l3 -24 2317 -3 2317 -2 6 20 c17 53
166 50 -2319 50 -1265 0 -2307 -4 -2314 -9z"/>
<path d="M561 263 c-16 -14 -21 -30 -22 -73 -3 -91 -1 -100 20 -100 15 0 20 8
23 37 2 28 8 37 25 39 19 3 22 -2 25 -34 2 -29 7 -37 23 -37 18 0 20 8 23 69
3 60 0 72 -19 92 -27 28 -68 31 -98 7z"/>
<path d="M710 198 c0 -68 3 -79 22 -92 28 -20 67 -20 95 -1 17 12 21 25 21 80
0 79 -17 96 -91 93 l-47 -2 0 -78z"/>
<path d="M900 260 c-15 -15 -20 -33 -20 -75 0 -65 22 -95 70 -95 48 0 70 30
70 95 0 43 -5 58 -22 75 -28 26 -72 26 -98 0z"/>
<path d="M1070 260 c-16 -16 -20 -33 -20 -95 0 -68 2 -75 20 -75 16 0 20 7 20
34 0 41 12 51 40 36 13 -7 20 -21 20 -40 0 -23 5 -30 19 -30 18 0 20 7 19 81
-1 69 -4 82 -22 95 -29 20 -73 17 -96 -6z"/>
<path d="M1241 259 c-19 -18 -22 -29 -19 -92 3 -64 5 -72 23 -72 16 0 21 8 23
38 3 33 6 38 25 35 17 -2 23 -11 25 -41 3 -29 7 -37 23 -37 17 0 19 7 19 75 0
62 -4 79 -20 95 -26 26 -70 26 -99 -1z"/>
<path d="M1582 257 c-32 -34 -31 -115 1 -145 54 -51 127 -8 127 73 0 82 -78
126 -128 72z"/>
<path d="M1750 253 c-17 -22 -20 -38 -18 -92 3 -58 5 -66 23 -66 15 0 21 8 25
36 4 31 8 35 25 29 12 -4 22 -19 25 -36 4 -21 11 -29 25 -29 16 0 20 6 19 30
-3 48 -3 68 -3 99 1 59 -82 79 -121 29z"/>
<path d="M1920 260 c0 -11 7 -20 15 -20 12 0 15 -13 15 -55 0 -52 -1 -55 -26
-55 -19 0 -25 -4 -22 -17 3 -15 15 -18 73 -18 58 0 70 3 73 18 3 13 -3 17 -22
17 -25 0 -26 3 -26 55 0 42 3 55 15 55 8 0 15 9 15 20 0 18 -7 20 -55 20 -48
0 -55 -2 -55 -20z"/>
<path d="M2099 261 c-20 -16 -24 -28 -24 -76 0 -48 4 -60 24 -76 56 -46 121
-5 121 76 0 81 -65 122 -121 76z"/>
<path d="M2374 255 c-22 -22 -25 -32 -22 -93 3 -59 5 -67 23 -67 16 0 21 8 23
38 3 31 7 37 27 37 20 0 24 -6 27 -37 2 -30 7 -38 23 -38 18 0 20 8 23 67 3
61 0 71 -22 93 -32 32 -70 32 -102 0z"/>
<path d="M2545 255 c-55 -54 -19 -165 54 -165 36 0 71 40 71 81 0 26 -3 29
-34 29 -40 0 -54 -14 -30 -28 22 -12 11 -45 -13 -40 -25 5 -32 95 -8 104 9 4
23 0 33 -8 35 -31 58 4 24 35 -27 24 -69 21 -97 -8z"/>
<path d="M2719 261 c-21 -17 -24 -28 -24 -93 0 -66 2 -73 20 -73 15 0 21 8 25
35 5 32 10 36 39 32 6 -1 11 -17 13 -34 2 -25 8 -33 23 -33 15 0 21 8 23 33 2
18 -2 39 -8 47 -8 9 -8 15 0 20 16 10 12 43 -10 65 -25 25 -71 26 -101 1z"/>
<path d="M2892 264 c-19 -13 -22 -24 -22 -79 0 -55 3 -66 22 -79 31 -22 74
-20 98 4 30 30 28 119 -3 148 -27 26 -64 28 -95 6z"/>
<path d="M3060 260 c-16 -16 -20 -33 -20 -95 0 -68 2 -75 20 -75 16 0 20 7 20
30 0 28 3 30 34 30 60 0 88 69 44 110 -28 26 -72 26 -98 0z"/>
<path d="M3232 257 c-32 -34 -31 -115 1 -145 29 -27 67 -28 98 -3 20 16 22 21
10 35 -13 15 -15 15 -32 0 -10 -9 -25 -14 -34 -11 -18 8 -20 39 -2 36 26 -3
37 2 37 16 0 9 -9 15 -25 15 -16 0 -25 6 -25 15 0 25 31 31 47 10 13 -18 14
-18 31 -1 16 16 16 18 -7 37 -31 26 -73 24 -99 -4z"/>
<path d="M3550 205 c0 -62 4 -79 20 -95 24 -24 67 -26 98 -4 20 13 22 24 22
95 0 72 -2 79 -20 79 -18 0 -20 -7 -20 -70 0 -54 -4 -72 -15 -76 -30 -12 -45
15 -45 82 0 57 -2 64 -20 64 -18 0 -20 -7 -20 -75z"/>
<path d="M3741 256 c-19 -20 -22 -32 -19 -92 3 -61 5 -69 23 -69 16 0 21 8 23
37 3 32 6 37 25 34 16 -2 23 -12 27 -37 4 -26 10 -34 25 -34 18 0 20 7 20 73
0 65 -3 76 -24 93 -32 26 -73 24 -100 -5z"/>
<path d="M3910 253 c-17 -22 -20 -38 -18 -92 3 -58 5 -66 23 -66 16 0 21 8 23
38 4 41 5 42 33 27 11 -6 19 -21 19 -36 0 -27 25 -43 42 -26 7 7 8 23 1 49 -5
22 -6 49 -2 60 6 16 2 29 -12 47 -29 36 -80 36 -109 -1z"/>
<path d="M4080 260 c0 -11 7 -20 15 -20 12 0 15 -13 15 -55 0 -52 -1 -55 -26
-55 -19 0 -25 -4 -22 -17 3 -15 15 -18 73 -18 56 0 70 3 70 15 0 8 -10 16 -22
18 -21 3 -23 9 -23 58 0 41 4 54 15 54 8 0 15 9 15 20 0 18 -7 20 -55 20 -48
0 -55 -2 -55 -20z"/>
<path d="M4255 255 c-55 -54 -19 -165 54 -165 41 0 71 40 71 95 0 85 -71 125
-125 70z"/>
</g>
</svg>
